<?xml version="1.0" encoding="UTF-8"?>
<svg width="324px" height="456px" viewBox="0 0 324 456" version="1.1" xmlns="http://www.w3.org/2000/svg" xmlns:xlink="http://www.w3.org/1999/xlink">
    <!-- Generator: Sketch 51.3 (57544) - http://www.bohemiancoding.com/sketch -->
    <title>114955</title>
    <desc>Created with Sketch.</desc>
    <defs></defs>
    <g id="Page-1" stroke="none" stroke-width="1" fill="none" fill-rule="evenodd">
        <g id="114955" fill="#FFFFFF" fill-rule="nonzero">
            <path d="M323.254,351.967 L323.254,10 C323.254,4.477 318.777,0 313.254,0 L33.604,0 C15.198,0 0.224,14.975 0.224,33.381 L0.224,375.415 L0.228,375.411 C0.228,375.412 0.228,375.414 0.228,375.415 C0.228,393.821 15.202,408.795 33.608,408.795 L74.176,408.795 L74.176,445.481 C74.176,451.004 78.653,455.481 84.176,455.481 L135.174,455.481 C140.697,455.481 145.174,451.004 145.174,445.481 L145.174,408.795 L153.673,408.795 L153.673,427.482 C153.673,433.005 158.15,437.482 163.673,437.482 L214.67,437.482 C220.193,437.482 224.67,433.005 224.67,427.482 L224.67,408.795 L313.258,408.795 C318.781,408.795 323.258,404.318 323.258,398.795 L323.258,352.035 C323.257,352.012 323.254,351.99 323.254,351.967 Z M33.604,20 L303.253,20 L303.253,342.035 L33.607,342.035 C28.926,342.035 24.394,343.003 20.223,344.83 L20.223,33.381 C20.224,26.002 26.226,20 33.604,20 Z M33.607,388.795 C26.23,388.795 20.227,382.793 20.227,375.415 C20.227,371.844 21.619,368.481 24.129,365.965 C26.67,363.431 30.035,362.035 33.607,362.035 L74.175,362.035 L74.175,388.795 L33.607,388.795 Z M94.176,435.481 L94.176,362.035 L125.174,362.035 L125.174,435.481 L94.176,435.481 Z M145.173,388.795 L145.173,362.035 L153.672,362.035 L153.672,388.795 L145.173,388.795 Z M173.672,417.482 L173.672,362.035 L204.669,362.035 L204.669,417.482 L173.672,417.482 Z M303.257,388.795 L224.669,388.795 L224.669,362.035 L303.257,362.035 L303.257,388.795 Z" id="Shape"></path>
            <path d="M221.168,165.806 L221.168,197.012 C211.922,200.923 205.418,210.086 205.418,220.74 L205.418,291.237 C205.418,305.435 216.969,316.986 231.168,316.986 C245.367,316.986 256.917,305.435 256.917,291.237 L256.917,220.74 C256.917,210.086 250.413,200.923 241.168,197.012 L241.168,165.806 C260.068,161.285 274.166,144.26 274.166,123.994 L274.166,60.997 C274.166,55.474 269.689,50.997 264.166,50.997 C258.643,50.997 254.166,55.474 254.166,60.997 L254.166,98.995 L241.168,98.995 L241.168,60.997 C241.168,55.474 236.691,50.997 231.168,50.997 C225.645,50.997 221.168,55.474 221.168,60.997 L221.168,98.995 L208.17,98.995 L208.17,60.997 C208.17,55.474 203.693,50.997 198.17,50.997 C192.647,50.997 188.17,55.474 188.17,60.997 L188.17,123.994 C188.17,144.26 202.268,161.285 221.168,165.806 Z M236.917,291.236 C236.917,294.406 234.338,296.985 231.168,296.985 C227.998,296.985 225.418,294.406 225.418,291.236 L225.418,220.739 C225.418,217.569 227.997,214.989 231.168,214.989 C234.338,214.989 236.917,217.568 236.917,220.739 L236.917,291.236 Z M254.167,118.995 L254.167,123.995 C254.167,136.676 243.85,146.993 231.169,146.993 C218.487,146.993 208.17,136.676 208.17,123.995 L208.17,118.995 L254.167,118.995 Z" id="Shape"></path>
            <path d="M101.174,165.806 L101.174,197.012 C91.929,200.923 85.425,210.086 85.425,220.74 L85.425,291.237 C85.425,305.435 96.976,316.986 111.174,316.986 C125.372,316.986 136.923,305.435 136.923,291.237 L136.923,220.74 C136.923,210.086 130.419,200.923 121.174,197.012 L121.174,165.806 C140.075,161.285 154.173,144.26 154.173,123.994 L154.173,93.996 C154.173,70.287 134.884,50.997 111.174,50.997 C87.464,50.997 68.175,70.286 68.175,93.996 L68.175,123.995 C68.176,144.26 82.273,161.285 101.174,165.806 Z M116.923,291.236 C116.923,294.406 114.344,296.985 111.174,296.985 C108.004,296.985 105.425,294.406 105.425,291.236 L105.425,220.739 C105.425,217.569 108.004,214.989 111.174,214.989 C114.344,214.989 116.923,217.568 116.923,220.739 L116.923,291.236 Z M88.176,93.996 C88.176,81.314 98.493,70.997 111.175,70.997 C123.857,70.997 134.174,81.314 134.174,93.996 L134.174,123.995 C134.174,136.676 123.857,146.993 111.175,146.993 C98.493,146.993 88.176,136.676 88.176,123.995 L88.176,93.996 Z" id="Shape"></path>
        </g>
    </g>
</svg>